<?xml version="1.0" encoding="utf-8"?>
<!-- Generator: Adobe Illustrator 23.1.0, SVG Export Plug-In . SVG Version: 6.00 Build 0)  -->
<svg version="1.1" id="UiIcons" xmlns="http://www.w3.org/2000/svg" xmlns:xlink="http://www.w3.org/1999/xlink" x="0px" y="0px"
	 viewBox="0 0 72 1760" style="enable-background:new 0 0 72 1760;" xml:space="preserve">
<style type="text/css">
	.st0{fill:#12BED5;}
</style>
<path id="Social" class="st0" d="M59.5,1681.5c-3.4,0-6.4,1.3-8.7,3.5L25,1672.5c0-0.1,0-0.3,0-0.4c0-0.2,0-0.3,0-0.4l25.8-12.4
	c2.2,2.2,5.3,3.5,8.7,3.5c6.9,0,12.5-5.6,12.5-12.5s-5.6-12.5-12.5-12.5s-12.5,5.6-12.5,12.5c0,0.2,0,0.3,0,0.4l-25.8,12.4
	c-2.2-2.2-5.3-3.5-8.7-3.5c-6.9,0-12.5,5.6-12.5,12.5c0,6.9,5.6,12.5,12.5,12.5c3.4,0,6.4-1.3,8.7-3.5l25.8,12.4c0,0.2,0,0.3,0,0.4
	c0,6.9,5.6,12.5,12.5,12.5S72,1700.9,72,1694C72,1687.1,66.4,1681.5,59.5,1681.5z M59.5,1643.9c3.5,0,6.3,2.8,6.3,6.3
	s-2.8,6.3-6.3,6.3s-6.3-2.8-6.3-6.3S56,1643.9,59.5,1643.9z M12.5,1678.3c-3.5,0-6.3-2.8-6.3-6.3c0-3.5,2.8-6.3,6.3-6.3
	s6.3,2.8,6.3,6.3C18.8,1675.5,16,1678.3,12.5,1678.3z M59.5,1700.3c-3.5,0-6.3-2.8-6.3-6.3c0-3.5,2.8-6.3,6.3-6.3s6.3,2.8,6.3,6.3
	C65.7,1697.5,62.9,1700.3,59.5,1700.3z"/>
<polygon id="More" class="st0" points="72,1491 41,1491 41,1460 31,1460 31,1491 0,1491 0,1501 31,1501 31,1532 41,1532 41,1501 
	72,1501 "/>
<g id="Grab">
	<rect x="4" y="1288" class="st0" width="16" height="16"/>
	<rect x="52" y="1288" class="st0" width="16" height="16"/>
	<rect x="4" y="1336" class="st0" width="16" height="16"/>
	<rect x="52" y="1336" class="st0" width="16" height="16"/>
</g>
<path id="Active" class="st0" d="M36,1108.5c-19.9,0-36,16.1-36,36s16.1,36,36,36c19.9,0,36-16.1,36-36S55.9,1108.5,36,1108.5z
	 M36,1170.5c-14.4,0-26-11.6-26-26c0-14.4,11.6-26,26-26c14.4,0,26,11.6,26,26C62,1158.8,50.4,1170.5,36,1170.5z"/>
<g id="End">
	<polygon class="st0" points="41.1,935.1 34.3,942 58.3,966 34.3,990 41.1,996.9 72,966 	"/>
	<polygon class="st0" points="6.9,935.1 0,942 24,966 0,990 6.9,996.9 37.7,966 	"/>
</g>
<g id="Begin">
	<polygon class="st0" points="30.9,820.9 37.7,814 13.7,790 37.7,766 30.9,759.1 0,790 	"/>
	<polygon class="st0" points="65.1,820.9 72,814 48,790 72,766 65.1,759.1 34.3,790 	"/>
</g>
<polygon id="Next" class="st0" points="28,580 20,588 48,616 20,644 28,652 64,616 "/>
<polygon id="Previous" class="st0" points="44,476 52,468 24,440 52,412 44,404 8,440 "/>
<polygon id="Cross" class="st0" points="72,235.6 64.5,228.1 36,256.6 7.5,228.1 0,235.6 28.5,264.1 0,292.6 7.5,300.1 36,271.6 
	64.5,300.1 72,292.6 43.5,264.1 "/>
<g id="Bars">
	<rect y="84" class="st0" width="72" height="8"/>
	<rect y="60" class="st0" width="72" height="8"/>
	<rect y="108" class="st0" width="72" height="8"/>
</g>
</svg>
