<?xml version="1.0" encoding="utf-8"?>
<!-- Generator: Adobe Illustrator 23.1.0, SVG Export Plug-In . SVG Version: 6.00 Build 0)  -->
<svg version="1.1" id="Logo" xmlns="http://www.w3.org/2000/svg" xmlns:xlink="http://www.w3.org/1999/xlink" x="0px" y="0px"
	 viewBox="0 0 480 658" style="enable-background:new 0 0 480 658;" xml:space="preserve">
<style type="text/css">
	.st0{fill:url(#SVGID_1_);}
	.st1{fill:url(#SVGID_2_);}
	.st2{fill:#C8C8C7;}
	.st3{fill:#DBDDDD;}
	.st4{fill:#086B77;}
	.st5{fill:url(#Reflect_1_);}
	.st6{fill:#080200;}
	.st7{fill:url(#SVGID_3_);}
	.st8{fill:url(#SVGID_4_);}
	.st9{fill:url(#SVGID_5_);}
</style>
<g id="Frames">
	
		<radialGradient id="SVGID_1_" cx="108.3181" cy="270.5101" r="626.7467" gradientTransform="matrix(0.9063 0.4226 -0.3254 0.6979 98.1769 35.9555)" gradientUnits="userSpaceOnUse">
		<stop  offset="0" style="stop-color:#00677B"/>
		<stop  offset="0.1447" style="stop-color:#006072"/>
		<stop  offset="0.3789" style="stop-color:#004C5A"/>
		<stop  offset="0.6734" style="stop-color:#002B33"/>
		<stop  offset="1" style="stop-color:#000000"/>
	</radialGradient>
	<polygon class="st0" points="99.8,571 49.2,571 49.2,189.5 251.4,189.5 269.8,140.3 0,140.3 0,620.3 83.1,620.3 	"/>
	
		<radialGradient id="SVGID_2_" cx="170.6612" cy="263.8587" r="675.3576" gradientTransform="matrix(0.9063 0.4226 -0.3254 0.6979 101.8535 7.5985)" gradientUnits="userSpaceOnUse">
		<stop  offset="0" style="stop-color:#00677B"/>
		<stop  offset="0.1447" style="stop-color:#006072"/>
		<stop  offset="0.3789" style="stop-color:#004C5A"/>
		<stop  offset="0.6734" style="stop-color:#002B33"/>
		<stop  offset="1" style="stop-color:#000000"/>
	</radialGradient>
	<polygon class="st1" points="409.7,140.3 409.7,189.5 430.8,189.5 430.8,571 192,571 167.3,620.3 480,620.3 480,140.3 	"/>
</g>
<g id="Icon_5_">
	<g id="Shadows_6_">
		<polygon class="st2" points="103.6,371.9 132.2,481 202.7,219.6 		"/>
		<polygon class="st3" points="157.7,565 268.6,509.1 327.6,316.7 		"/>
	</g>
	<g id="Leaf_6_">
		<path id="Shape_6_" class="st4" d="M346.7,164.3l28.7-59.6C370.8,40.8,361.8,0,361.8,0L103,657
			c158.9-252.7,262.7-329.6,263.1-331.9c11.5-70,13.2-135.9,10.9-189.9L346.7,164.3z"/>
		
			<linearGradient id="Reflect_1_" gradientUnits="userSpaceOnUse" x1="236.0356" y1="344.2677" x2="263.6139" y2="356.5464" gradientTransform="matrix(1 0 0 1 0 -1)">
			<stop  offset="0" style="stop-color:#44A4B1"/>
			<stop  offset="0.9" style="stop-color:#44A4B1;stop-opacity:0"/>
		</linearGradient>
		<path id="Reflect_6_" class="st5" d="M369.2,44.3L110.3,645.5c1.7-2.7,3.4-5.3,5.1-8l231.3-473.3l28.7-59.6
			C373.7,81.1,371.4,60.7,369.2,44.3z"/>
		<g id="Border_6_">
			<path class="st6" d="M335.7,353.4c-29.5,24.9-117.3,102.1-219.5,270.1L103,657C211.2,485,293.8,394.4,335.7,353.4z"/>
			<path class="st6" d="M377,135.1l-22.6,21.6c2.2,53.8,0.6,119.4-10.9,189c14.6-13.8,22.4-20.1,22.5-20.7
				C377.6,255.1,379.3,189.1,377,135.1z"/>
			<path class="st6" d="M352.7,125.8l-28.7,59.6l22.6-21.2l28.7-59.6C370.8,40.8,361.8,0,361.8,0l-18.1,45.9
				C346.6,64.2,350.3,91.7,352.7,125.8z"/>
		</g>
		<g id="Light_6_">
			
				<linearGradient id="SVGID_3_" gradientUnits="userSpaceOnUse" x1="145.0369" y1="350.7568" x2="341.5307" y2="377.4366" gradientTransform="matrix(0.9959 -9.120000e-02 9.120000e-02 0.9959 13.096 -9.463)">
				<stop  offset="0" style="stop-color:#FFFFFF"/>
				<stop  offset="0.8746" style="stop-color:#FFFFFF;stop-opacity:0.1254"/>
				<stop  offset="1" style="stop-color:#FFFFFF;stop-opacity:0"/>
			</linearGradient>
			<path class="st7" d="M365.6,20.6C363.4,7.3,361.8,0,361.8,0L103,657c1.1-1.7,2.2-3.4,3.3-5.1L365.6,20.6z"/>
			
				<linearGradient id="SVGID_4_" gradientUnits="userSpaceOnUse" x1="369.0466" y1="9.1155" x2="363.4121" y2="116.6283" gradientTransform="matrix(1 0 0 1 0 -1)">
				<stop  offset="0" style="stop-color:#FFFFFF;stop-opacity:0.75"/>
				<stop  offset="1" style="stop-color:#FFFFFF;stop-opacity:0.72"/>
			</linearGradient>
			<path class="st8" d="M370.8,114l4.5-9.4C370.8,40.8,361.8,0,361.8,0l-4.2,10.7C359.2,18.5,366.8,57.4,370.8,114z"/>
			
				<linearGradient id="SVGID_5_" gradientUnits="userSpaceOnUse" x1="326.4083" y1="188.3188" x2="309.6606" y2="371.2024" gradientTransform="matrix(0.9959 -9.120000e-02 9.120000e-02 0.9959 13.096 -9.463)">
				<stop  offset="0" style="stop-color:#FFFFFF;stop-opacity:0.72"/>
				<stop  offset="1" style="stop-color:#FFFFFF;stop-opacity:0.15"/>
			</linearGradient>
			<path class="st9" d="M332.8,177.1l39.7-32.6c2.2,52.5,0.7,116.3-10,184c2.3-2.1,3.6-3.2,3.6-3.5c11.5-70,13.2-135.9,10.9-189.9
				l-30.4,29.1L332.8,177.1z"/>
		</g>
	</g>
</g>
</svg>
