<?xml version="1.0" encoding="utf-8"?>
<!-- Generator: Adobe Illustrator 23.1.0, SVG Export Plug-In . SVG Version: 6.00 Build 0)  -->
<svg version="1.1" id="Calque_1" xmlns="http://www.w3.org/2000/svg" xmlns:xlink="http://www.w3.org/1999/xlink" x="0px" y="0px"
	 viewBox="0 0 176 176" style="enable-background:new 0 0 176 176;" xml:space="preserve">
<style type="text/css">
	.st0{fill:#12bed5;}
	.st1{fill:#0c7f8e;}
	.st2{fill-rule:evenodd;clip-rule:evenodd;fill:#000000;}
</style>
<path id="Back" class="st0" d="M0,0v176h176V0H0z"/>
<g id="Shadow">
	<path class="st1" d="M176,77.3l-45.5-45.5c4,10.2,1.4,17.9,0.6,19.7c4.8,5.3,7.8,12.1,7.8,20.4c0,29.2-17.8,35.6-34.7,37.5
		c2.8,2.4,5.1,6.9,5.1,14.1c0,10.2-0.1,18.6-0.1,21.2c0,1.7,1.1,3.7,3.7,3.7c-7.2,2.2-14.8,3.5-22.7,3.5c-7.7,0-15.1-1.2-22.1-3.3
		L95.6,176H176V77.3z"/>
	<path class="st1" d="M71.4,130.2c-11.8,2.2-18.2-0.1-21.7-3.2l20.5,20.5c0.9-0.7,1.3-1.8,1.3-2.9C71.5,142.9,71.4,136.6,71.4,130.2
		z"/>
	<path class="st1" d="M52.2,100.2L52.2,100.2l19.5,19.5c0,0,0.1,0,0.1,0c0.7-4.9,2.7-8.3,4.8-10.2C67.8,108.5,58.8,106.2,52.2,100.2
		z"/>
</g>
<path id="Icon" class="st2" d="M130.3,31.4c0,0-6.4-2.1-20.9,7.8c-6.1-1.7-12.5-2.6-19-2.6c-6.5,0-12.9,0.9-19,2.6
	c-14.5-9.8-20.9-7.8-20.9-7.8c-4.2,10.4-1.5,18.2-0.8,20.1C45,56.8,42,63.7,42,71.9c0,29.1,17.7,35.6,34.6,37.5
	c-2.2,1.9-4.2,5.2-4.8,10.2c-4.4,2-15.3,5.2-22.1-6.3c-1.4-2.3-5.7-7.9-11.7-7.8c-6.4,0.1-2.6,3.6,0.1,5c3.2,1.8,6.9,8.5,7.8,10.7
	c1.5,4.3,6.5,12.4,25.5,8.9c0,6.4,0.1,12.6,0.1,14.4c0,1.8-1.1,3.7-4,3.7c7.2,2.3,14.9,3.5,22.8,3.5c7.9,0,15.6-1.2,22.7-3.5
	c-2.7-0.1-3.7-2-3.7-3.7c0-2.6,0.1-11,0.1-21.2c0-7.1-2.4-11.7-5.1-14.1c16.9-1.9,34.7-8.4,34.7-37.5c0-8.4-2.9-15.1-7.8-20.4
	C131.9,49.6,134.5,41.8,130.3,31.4z"/>
</svg>
