<?xml version="1.0" encoding="utf-8"?>
<!-- Generator: Adobe Illustrator 23.1.0, SVG Export Plug-In . SVG Version: 6.00 Build 0)  -->
<svg version="1.1" id="Behance_1_" xmlns="http://www.w3.org/2000/svg" xmlns:xlink="http://www.w3.org/1999/xlink" x="0px" y="0px"
	 viewBox="0 0 176 176" style="enable-background:new 0 0 176 176;" xml:space="preserve">
<style type="text/css">
	.st0{fill:#12bed5;}
	.st1{fill:#0c7f8e;}
	.st2{fill:#000000;}
</style>
<g id="Behance">
	<g id="Back">
		<path class="st0" d="M0,0v176h176V0H0z"/>
	</g>
	<g id="Shadow">
		<path class="st1" d="M67.2,77.4c2.2-1.3,3.3-3.7,3.3-7.1c0-3.8-1.5-6.3-4.4-7.5c-2.5-0.8-5.7-1.3-9.6-1.3H41.4v17.9h17.2
			C62.1,79.4,65,78.7,67.2,77.4z"/>
		<path class="st1" d="M67,94.2c-1.9-0.9-4.6-1.3-8.1-1.4H41.4v21.7h17.2c3.5,0,6.3-0.5,8.2-1.4c3.6-1.8,5.3-5.1,5.3-10.2
			C72.2,98.7,70.4,95.8,67,94.2z"/>
		<path class="st1" d="M133.5,82c-2.4-2.1-5.4-3.2-9-3.2c-3.9,0-6.9,1.1-9.1,3.3c-2.2,2.2-3.5,5.2-4.1,9h26.2
			C137.3,87.2,135.9,84.1,133.5,82z"/>
		<path class="st1" d="M140.7,50.9v7.9h-32.5l8.4,8.4c2.5-0.6,5.1-0.9,7.9-0.9c5.1,0,9.6,0.9,13.7,2.7c4.1,1.8,7.4,4.7,10.1,8.6
			c2.4,3.5,3.9,7.5,4.6,12c0.4,2.7,0.6,6.5,0.5,11.6h-42.4c0.2,5.8,2.3,9.9,6.1,12.3c2.3,1.5,5.1,2.2,8.4,2.2c3.5,0,6.3-0.9,8.5-2.7
			c1.2-1,2.2-2.3,3.1-4h15.5c-0.4,3.5-2.3,7-5.6,10.5c-5.2,5.7-12.5,8.5-21.9,8.5c-7.8,0-14.6-2.4-20.5-7.2
			c-5.9-4.8-8.9-12.6-8.9-23.3c0-9.5,2.3-16.8,7-22.2L82.3,55.1c0.2,0.3,0.5,0.6,0.7,0.9c2.5,3.5,3.7,7.6,3.7,12.4c0,5-1.3,9-3.8,12
			c-1.4,1.7-3.5,3.2-6.2,4.6c4.1,1.5,7.3,3.9,9.4,7.2c2.1,3.3,3.2,7.2,3.2,11.9c0,4.8-1.2,9.1-3.6,13c-1.5,2.5-3.4,4.7-5.8,6.4
			c-2.6,2-5.7,3.3-9.2,4.1c-3.5,0.7-7.4,1.1-11.5,1.1H22.7L70.9,176H176V87.1L140.7,50.9z"/>
	</g>
	<g id="Icon">
		<path class="st2" d="M83,56c2.5,3.5,3.7,7.6,3.7,12.4c0,5-1.3,9-3.8,12c-1.4,1.7-3.5,3.2-6.2,4.6c4.1,1.5,7.3,3.9,9.4,7.2
			c2.1,3.3,3.2,7.2,3.2,11.9c0,4.8-1.2,9.1-3.6,13c-1.5,2.5-3.4,4.7-5.8,6.4c-2.6,2-5.7,3.3-9.2,4.1c-3.5,0.7-7.4,1.1-11.5,1.1H22.6
			V47.4h39.3C71.8,47.5,78.8,50.4,83,56z M41.4,61.5v17.9h17.2c3.5,0,6.4-0.7,8.6-2c2.2-1.3,3.3-3.7,3.3-7.1c0-3.8-1.5-6.3-4.4-7.5
			c-2.5-0.8-5.7-1.3-9.6-1.3H41.4z M41.4,92.9v21.7h17.2c3.5,0,6.3-0.5,8.2-1.4c3.6-1.8,5.3-5.1,5.3-10.2c0-4.2-1.7-7.1-5.2-8.7
			c-1.9-0.9-4.6-1.3-8.1-1.4H41.4z"/>
		<path class="st2" d="M138.1,69.1c4.1,1.8,7.4,4.7,10.1,8.6c2.4,3.5,3.9,7.5,4.6,12c0.4,2.7,0.6,6.5,0.5,11.6h-42.4
			c0.2,5.8,2.3,9.9,6.1,12.3c2.3,1.5,5.1,2.2,8.4,2.2c3.5,0,6.3-0.9,8.5-2.7c1.2-1,2.2-2.3,3.1-4h15.5c-0.4,3.5-2.3,7-5.6,10.5
			c-5.2,5.7-12.5,8.5-21.9,8.5c-7.8,0-14.6-2.4-20.5-7.2c-5.9-4.8-8.9-12.6-8.9-23.3c0-10.1,2.7-17.8,8-23.2
			c5.4-5.4,12.3-8.1,20.8-8.1C129.5,66.3,134.1,67.2,138.1,69.1z M115.4,82.2c-2.2,2.2-3.5,5.2-4.1,9h26.2c-0.3-4-1.6-7.1-4.1-9.2
			c-2.4-2.1-5.4-3.2-9-3.2C120.5,78.9,117.5,80,115.4,82.2z"/>
		<rect x="107.9" y="50.7" class="st2" width="32.8" height="8.1"/>
	</g>
</g>
</svg>
