<?xml version="1.0" encoding="utf-8"?>
<!-- Generator: Adobe Illustrator 23.1.0, SVG Export Plug-In . SVG Version: 6.00 Build 0)  -->
<svg version="1.1" id="Calque_1" xmlns="http://www.w3.org/2000/svg" xmlns:xlink="http://www.w3.org/1999/xlink" x="0px" y="0px"
	 viewBox="0 0 176 176" style="enable-background:new 0 0 176 176;" xml:space="preserve">
<style type="text/css">
	.st0{fill:#12bed5;}
	.st1{fill:#0c7f8e;}
	.st2{fill:#000000;}
</style>
<g id="LinkedIn">
	<rect id="Back" class="st0" width="176" height="176"/>
	<g id="Shadow">
		<path class="st1" d="M93.8,75.7h0.3c0.9-1.8,2.3-3.6,4.1-5.2L93.8,66V75.7z"/>
		<path class="st1" d="M176,112.8l-39.9-39.9c4.4,6.2,5.6,15.1,5.6,25.2v39.2h-22.2v-34.7c0-8.3-0.2-18.9-11.5-18.9
			c-11.5,0-13.3,9-13.3,18.3v35.3H72.5V65.9h15.6L57.9,35.7c1.6,2.1,2.5,4.8,2.5,7.6c0,7.1-5.8,12.9-12.9,12.9
			c-2.8,0-5.4-0.9-7.5-2.4l12.2,12.2h6.4v71.4H36.9L75.6,176H176V112.8z"/>
	</g>
	<g id="Icon">
		<path class="st2" d="M115.1,64.1c-10.8,0-18,5.9-21,11.5h-0.3v-9.8H72.5v71.4h22.2V102c0-9.3,1.8-18.3,13.3-18.3
			c11.4,0,11.5,10.6,11.5,18.9v34.7h22.2V98.1C141.7,78.9,137.6,64.1,115.1,64.1z"/>
		<rect x="36.4" y="65.9" class="st2" width="22.2" height="71.4"/>
		<path class="st2" d="M47.5,30.4c-7.1,0-12.9,5.8-12.9,12.9c0,7.1,5.8,12.9,12.9,12.9c7.1,0,12.9-5.8,12.9-12.9
			C60.4,36.2,54.6,30.4,47.5,30.4z"/>
	</g>
</g>
</svg>
